<svg width="32" height="33" viewBox="0 0 32 33" fill="none" xmlns="http://www.w3.org/2000/svg">
<path d="M22.666 23.3613C20.866 23.3613 19.7327 23.9388 18.7327 24.4613C17.866 24.9151 17.1593 25.2863 15.9993 25.2863C14.7993 25.2863 14.1327 24.9426 13.266 24.4613C12.266 23.9388 11.1727 23.3613 9.33268 23.3613C7.49268 23.3613 6.39935 23.9388 5.39935 24.4613C4.82602 24.7638 4.31935 25.0251 3.70602 25.1763C3.10602 25.3138 2.66602 25.8088 2.66602 26.4276V26.5651C2.66602 27.3901 3.41268 27.9813 4.18602 27.8163C5.17268 27.6101 5.91935 27.2251 6.59935 26.8676C7.46601 26.4138 8.15935 26.0426 9.33268 26.0426C10.506 26.0426 11.1993 26.3863 12.066 26.8676C13.066 27.3901 14.1593 27.9676 15.9993 27.9676C17.8393 27.9676 18.9327 27.3901 19.9327 26.8676C20.7993 26.4138 21.506 26.0426 22.666 26.0426C23.866 26.0426 24.5327 26.3863 25.3993 26.8676C26.0927 27.2251 26.8393 27.6238 27.8393 27.8301C28.0195 27.8664 28.2051 27.8614 28.3832 27.8155C28.5612 27.7696 28.7274 27.684 28.8698 27.5647C29.0122 27.4453 29.1275 27.2952 29.2075 27.1248C29.2875 26.9545 29.3302 26.7681 29.3327 26.5788V26.4551C29.3327 25.8226 28.8793 25.3276 28.2793 25.1901C27.666 25.0526 27.1727 24.7913 26.5993 24.4751C25.5993 23.9388 24.466 23.3613 22.666 23.3613ZM22.666 17.2426C20.866 17.2426 19.7327 17.8338 18.7327 18.3426C17.866 18.7826 17.1593 19.1676 15.9993 19.1676C14.7993 19.1676 14.1327 18.8238 13.266 18.3426C12.266 17.8201 11.1727 17.2426 9.33268 17.2426C7.49268 17.2426 6.39935 17.8338 5.39935 18.3426C4.82602 18.6313 4.31935 18.9063 3.69268 19.0576C3.10602 19.1951 2.66602 19.6901 2.66602 20.3088V20.4463C2.66609 20.6364 2.70725 20.824 2.78648 20.9956C2.86572 21.1672 2.98105 21.3184 3.12408 21.4383C3.26711 21.5581 3.43425 21.6436 3.61333 21.6884C3.79242 21.7333 3.97894 21.7364 4.15935 21.6976C5.15935 21.4913 5.90602 21.0926 6.59935 20.7488C7.46601 20.2676 8.13268 19.9238 9.33268 19.9238C10.5327 19.9238 11.1993 20.2676 12.066 20.7488C13.066 21.2713 14.1593 21.8488 15.9993 21.8488C17.8393 21.8488 18.9327 21.2576 19.9327 20.7488C20.7993 20.2676 21.466 19.9238 22.666 19.9238C23.866 19.9238 24.5327 20.2676 25.3993 20.7488C26.0927 21.1063 26.8393 21.5051 27.8393 21.7113C28.0206 21.7478 28.2074 21.7425 28.3864 21.6959C28.5654 21.6492 28.7322 21.5624 28.8749 21.4415C29.0176 21.3206 29.1326 21.1688 29.2117 20.9967C29.2909 20.8247 29.3322 20.6368 29.3327 20.4463V20.3226C29.3327 19.6901 28.8793 19.1951 28.2793 19.0576C27.666 18.9201 27.1727 18.6588 26.5993 18.3426C25.5993 17.8201 24.466 17.2426 22.666 17.2426ZM26.5993 6.13259C25.5993 5.61009 24.4927 5.03259 22.666 5.03259C20.8393 5.03259 19.7327 5.61009 18.7327 6.13259C17.866 6.57259 17.1593 6.95759 15.9993 6.95759C14.7993 6.95759 14.1327 6.61384 13.266 6.13259C12.266 5.62384 11.1727 5.03259 9.33268 5.03259C7.49268 5.03259 6.39935 5.61009 5.39935 6.13259C4.82602 6.43509 4.31935 6.69634 3.70602 6.84759C3.10602 6.98509 2.66602 7.48009 2.66602 8.09884V8.19509C2.66602 9.02009 3.38602 9.62509 4.15935 9.46009C5.15935 9.25384 5.90602 8.85509 6.59935 8.51134C7.46601 8.05759 8.15935 7.68634 9.33268 7.68634C10.506 7.68634 11.1993 8.03009 12.066 8.51134C13.066 9.03384 14.1593 9.61134 15.9993 9.61134C17.8393 9.61134 18.9327 9.02009 19.9327 8.51134C20.7993 8.07134 21.506 7.68634 22.666 7.68634C23.866 7.68634 24.5327 8.03009 25.3993 8.51134C26.0927 8.86884 26.8393 9.26759 27.8393 9.47384C28.0206 9.5103 28.2074 9.50502 28.3864 9.45838C28.5654 9.41173 28.7322 9.32487 28.8749 9.20401C29.0176 9.08315 29.1326 8.93127 29.2117 8.75923C29.2909 8.5872 29.3322 8.39925 29.3327 8.20884V8.08509C29.3327 7.45259 28.8793 6.95759 28.2793 6.82009C27.666 6.68259 27.1727 6.43509 26.5993 6.13259ZM22.666 11.1238C20.866 11.1238 19.7327 11.7151 18.7327 12.2238C17.866 12.7051 17.1993 13.0488 15.9993 13.0488C14.7993 13.0488 14.1327 12.7051 13.266 12.2238C12.266 11.7013 11.1727 11.1238 9.33268 11.1238C7.49268 11.1238 6.39935 11.7151 5.39935 12.2238C4.82602 12.5401 4.33268 12.8013 3.71935 12.9388C3.11935 13.0763 2.66602 13.5713 2.66602 14.2038V14.3276C2.66609 14.5176 2.70725 14.7053 2.78648 14.8769C2.86572 15.0485 2.98105 15.1997 3.12408 15.3195C3.26711 15.4394 3.43425 15.5248 3.61333 15.5697C3.79242 15.6145 3.97894 15.6177 4.15935 15.5788C5.15935 15.3726 5.90602 14.9738 6.59935 14.6301C7.46601 14.1901 8.17268 13.8051 9.33268 13.8051C10.4927 13.8051 11.1993 14.1488 12.066 14.6301C13.066 15.1526 14.1593 15.7301 15.9993 15.7301C17.8393 15.7301 18.9327 15.1388 19.9327 14.6301C20.7993 14.1901 21.506 13.8051 22.666 13.8051C23.866 13.8051 24.5327 14.1488 25.3993 14.6301C26.0927 14.9876 26.8393 15.3863 27.8393 15.5926C28.0195 15.6289 28.2051 15.6239 28.3832 15.578C28.5612 15.5321 28.7274 15.4465 28.8698 15.3272C29.0122 15.2078 29.1275 15.0577 29.2075 14.8873C29.2875 14.717 29.3302 14.5306 29.3327 14.3413V14.2176C29.3327 13.5851 28.8793 13.0901 28.2793 12.9526C27.666 12.8151 27.1727 12.5538 26.5993 12.2376C25.5993 11.7013 24.466 11.1238 22.666 11.1238Z" fill="url(#paint0_linear_12_344)"/>
<defs>
<linearGradient id="paint0_linear_12_344" x1="15.9993" y1="5.03259" x2="15.9993" y2="27.9676" gradientUnits="userSpaceOnUse">
<stop stop-color="#FFBF00"/>
<stop offset="1" stop-color="#F2870C"/>
</linearGradient>
</defs>
</svg>
