<svg width="32" height="33" viewBox="0 0 32 33" fill="none" xmlns="http://www.w3.org/2000/svg">
<path d="M25.3333 9.62494H24.24L21.9733 3.18994C21.7857 2.65933 21.4448 2.20083 20.9965 1.87629C20.5483 1.55174 20.0143 1.37676 19.4667 1.37494H17.3333C16.6 1.37494 16 1.99369 16 2.74994C16 3.50619 16.6 4.12494 17.3333 4.12494H19.4667L21.4133 9.62494H15L14.52 8.24994H14.64C15.3733 8.24994 15.9733 7.63119 15.9733 6.87494C15.9733 6.11869 15.3733 5.49994 14.64 5.49994H10.6667C9.93333 5.49994 9.33333 6.11869 9.33333 6.87494C9.33333 7.63119 9.93333 8.24994 10.6667 8.24994H11.6667L14.0933 15.1249H13.2C12.6133 12.0587 10.12 9.78994 7 9.63869C3.26667 9.44619 0 12.6499 0 16.4999C0 20.3499 2.93333 23.3749 6.66667 23.3749C9.94667 23.3749 12.6 21.0512 13.2 17.8749H18.8C19.3867 20.9412 21.88 23.2099 25 23.3612C28.7333 23.5399 32 20.3499 32 16.4862C32 12.6499 29.0667 9.62494 25.3333 9.62494ZM8 17.8749H10.4267C9.86667 19.5662 8.29333 20.7349 6.4 20.6112C4.41333 20.4874 2.76 18.7549 2.66667 16.6924C2.57333 14.2862 4.36 12.3749 6.66667 12.3749C8.44 12.3749 9.89333 13.5162 10.4267 15.1249H8C7.26667 15.1249 6.66667 15.7437 6.66667 16.4999C6.66667 17.2562 7.26667 17.8749 8 17.8749ZM18.8 15.1249H16.9333L15.96 12.3749H20C19.4133 13.1724 18.9867 14.0937 18.8 15.1249ZM25.1733 20.6249C23.12 20.5424 21.3867 18.7412 21.3333 16.6099C21.3067 15.2899 21.8533 14.1349 22.7333 13.3649L23.56 15.7024C23.8133 16.4174 24.5733 16.7887 25.2667 16.5274C25.96 16.2662 26.32 15.4824 26.0667 14.7674L25.2267 12.3887L25.24 12.3749C25.7746 12.3561 26.3073 12.4493 26.806 12.6487C27.3047 12.8481 27.7591 13.1497 28.1416 13.5352C28.5242 13.9207 28.827 14.3822 29.0319 14.8917C29.2367 15.4013 29.3392 15.9484 29.3333 16.4999C29.3333 18.8649 27.4933 20.7074 25.1733 20.6249ZM14.6667 27.4999H9.33333L17.3333 31.6249V28.8749H22.6667L14.6667 24.7499V27.4999Z" fill="url(#paint0_linear_12_328)"/>
<defs>
<linearGradient id="paint0_linear_12_328" x1="16" y1="1.37494" x2="16" y2="31.6249" gradientUnits="userSpaceOnUse">
<stop stop-color="#FFBF00"/>
<stop offset="1" stop-color="#F2870C"/>
</linearGradient>
</defs>
</svg>
