<svg width="32" height="33" viewBox="0 0 32 33" fill="none" xmlns="http://www.w3.org/2000/svg">
<path d="M16.0007 11C13.054 11 10.6673 13.4613 10.6673 16.5C10.6673 19.5387 13.054 22 16.0007 22C18.9473 22 21.334 19.5387 21.334 16.5C21.334 13.4613 18.9473 11 16.0007 11ZM27.9207 15.125C27.6186 12.3367 26.4062 9.73711 24.4824 7.7532C22.5586 5.76929 20.0378 4.51895 17.334 4.2075V2.75C17.334 1.99375 16.734 1.375 16.0007 1.375C15.2673 1.375 14.6673 1.99375 14.6673 2.75V4.2075C11.9635 4.51895 9.4427 5.76929 7.51891 7.7532C5.59512 9.73711 4.38267 12.3367 4.08065 15.125H2.66732C1.93398 15.125 1.33398 15.7437 1.33398 16.5C1.33398 17.2563 1.93398 17.875 2.66732 17.875H4.08065C4.38267 20.6633 5.59512 23.2629 7.51891 25.2468C9.4427 27.2307 11.9635 28.481 14.6673 28.7925V30.25C14.6673 31.0063 15.2673 31.625 16.0007 31.625C16.734 31.625 17.334 31.0063 17.334 30.25V28.7925C20.0378 28.481 22.5586 27.2307 24.4824 25.2468C26.4062 23.2629 27.6186 20.6633 27.9207 17.875H29.334C30.0673 17.875 30.6673 17.2563 30.6673 16.5C30.6673 15.7437 30.0673 15.125 29.334 15.125H27.9207ZM16.0007 26.125C10.8407 26.125 6.66732 21.8212 6.66732 16.5C6.66732 11.1788 10.8407 6.875 16.0007 6.875C21.1607 6.875 25.334 11.1788 25.334 16.5C25.334 21.8212 21.1607 26.125 16.0007 26.125Z" fill="url(#paint0_linear_12_375)"/>
<defs>
<linearGradient id="paint0_linear_12_375" x1="16.0007" y1="1.375" x2="16.0007" y2="31.625" gradientUnits="userSpaceOnUse">
<stop stop-color="#FFBF00"/>
<stop offset="1" stop-color="#F2870C"/>
</linearGradient>
</defs>
</svg>
