<svg width="32" height="33" viewBox="0 0 32 33" fill="none" xmlns="http://www.w3.org/2000/svg">
<path d="M24.0007 11H22.6673V8.25C22.6673 4.455 19.6807 1.375 16.0007 1.375C12.3207 1.375 9.33398 4.455 9.33398 8.25V11H8.00065C6.53398 11 5.33398 12.2375 5.33398 13.75V27.5C5.33398 29.0125 6.53398 30.25 8.00065 30.25H24.0007C25.4673 30.25 26.6673 29.0125 26.6673 27.5V13.75C26.6673 12.2375 25.4673 11 24.0007 11ZM16.0007 23.375C14.534 23.375 13.334 22.1375 13.334 20.625C13.334 19.1125 14.534 17.875 16.0007 17.875C17.4673 17.875 18.6673 19.1125 18.6673 20.625C18.6673 22.1375 17.4673 23.375 16.0007 23.375ZM12.0007 11V8.25C12.0007 5.9675 13.7873 4.125 16.0007 4.125C18.214 4.125 20.0007 5.9675 20.0007 8.25V11H12.0007Z" fill="url(#paint0_linear_12_370)"/>
<defs>
<linearGradient id="paint0_linear_12_370" x1="16.0007" y1="1.375" x2="16.0007" y2="30.25" gradientUnits="userSpaceOnUse">
<stop stop-color="#FFBF00"/>
<stop offset="1" stop-color="#F2870C"/>
</linearGradient>
</defs>
</svg>
