<svg width="32" height="33" viewBox="0 0 32 33" fill="none" xmlns="http://www.w3.org/2000/svg">
<path d="M8.0675 11.0687C6.32187 12.8692 5.339 15.3095 5.334 17.8555C5.32901 20.4016 6.30229 22.846 8.04083 24.6537C10.0008 19.9787 13.4942 16.0737 17.8542 13.75C14.0909 17.0337 11.5506 21.5635 10.6675 26.565C14.1342 28.2562 18.4008 27.6375 21.2675 24.6812C25.2542 20.57 26.3742 9.36371 26.6142 6.28371C26.6225 6.18584 26.61 6.08728 26.5774 5.99495C26.5449 5.90262 26.4931 5.81877 26.4257 5.7493C26.3583 5.67983 26.277 5.62643 26.1875 5.59285C26.098 5.55928 26.0024 5.54634 25.9075 5.55496C22.9208 5.80246 12.0542 6.95746 8.0675 11.0687Z" fill="url(#paint0_linear_12_351)"/>
<defs>
<linearGradient id="paint0_linear_12_351" x1="15.9753" y1="5.55237" x2="15.9753" y2="27.4923" gradientUnits="userSpaceOnUse">
<stop stop-color="#FFBF00"/>
<stop offset="1" stop-color="#F2870C"/>
</linearGradient>
</defs>
</svg>
