<svg width="32" height="33" viewBox="0 0 32 33" fill="none" xmlns="http://www.w3.org/2000/svg">
<path d="M25.9463 13.75C25.8147 13.9505 25.7369 14.1832 25.7205 14.4246C25.7041 14.666 25.7498 14.9076 25.8529 15.125C26.1836 15.9212 26.4169 16.7572 26.5463 17.6138C26.8895 19.8277 26.5685 22.097 25.6263 24.1175C25.5118 24.3392 25.3408 24.5242 25.1316 24.6527C24.9224 24.7812 24.6831 24.8481 24.4396 24.8463H7.57293C7.32809 24.8468 7.08784 24.7778 6.87852 24.6468C6.6692 24.5159 6.49889 24.328 6.38626 24.1038C5.53277 22.3183 5.16512 20.3274 5.32251 18.3433C5.4799 16.3593 6.15643 14.4565 7.27997 12.8377C8.40352 11.219 9.93197 9.94501 11.7024 9.15161C13.4728 8.35821 15.4188 8.07513 17.3329 8.33254C18.3014 8.44993 19.2488 8.70921 20.1463 9.10254C20.3571 9.20892 20.5914 9.25605 20.8255 9.23915C21.0596 9.22225 21.2852 9.14192 21.4796 9.00629C21.6821 8.86871 21.8444 8.67678 21.949 8.45116C22.0536 8.22555 22.0965 7.97478 22.0732 7.72586C22.0499 7.47695 21.9612 7.2393 21.8167 7.0385C21.6721 6.8377 21.4772 6.68135 21.2529 6.58629C18.6772 5.44731 15.8189 5.17428 13.0841 5.80597C10.3494 6.43766 7.87712 7.94195 6.0186 10.1052C4.16009 12.2684 3.0098 14.9805 2.73113 17.8563C2.45246 20.7321 3.05959 23.6253 4.46626 26.125C4.69894 26.5407 5.03305 26.8863 5.43537 27.1275C5.8377 27.3687 6.29423 27.4971 6.7596 27.5H25.2263C25.6962 27.502 26.1582 27.3758 26.5656 27.1343C26.973 26.8929 27.3113 26.5447 27.5463 26.125C28.5761 24.2845 29.1783 22.2229 29.3055 20.102C29.4328 17.9811 29.0816 15.8587 28.2796 13.9013C28.178 13.6782 28.0202 13.4874 27.8226 13.3488C27.625 13.2102 27.3949 13.1289 27.1563 13.1134C26.9178 13.098 26.6797 13.1489 26.4668 13.2609C26.2539 13.3729 26.0741 13.5418 25.9463 13.75Z" fill="url(#paint0_linear_12_372)"/>
<path d="M14.1194 17.3114C13.619 17.8274 13.3379 18.5273 13.3379 19.2571C13.3379 19.6184 13.4069 19.9762 13.541 20.31C13.6751 20.6439 13.8716 20.9472 14.1194 21.2027C14.3671 21.4582 14.6613 21.6609 14.985 21.7991C15.3087 21.9374 15.6557 22.0086 16.006 22.0086C16.7137 22.0086 17.3923 21.7187 17.8927 21.2027L25.4394 9.52893L14.1194 17.3114Z" fill="url(#paint1_linear_12_372)"/>
<defs>
<linearGradient id="paint0_linear_12_372" x1="15.998" y1="5.47351" x2="15.998" y2="27.5001" gradientUnits="userSpaceOnUse">
<stop stop-color="#FFBF00"/>
<stop offset="1" stop-color="#F2870C"/>
</linearGradient>
<linearGradient id="paint1_linear_12_372" x1="19.3886" y1="9.52893" x2="19.3886" y2="22.0086" gradientUnits="userSpaceOnUse">
<stop stop-color="#FFBF00"/>
<stop offset="1" stop-color="#F2870C"/>
</linearGradient>
</defs>
</svg>
