<svg width="145" height="38" viewBox="0 0 145 38" fill="none" xmlns="http://www.w3.org/2000/svg">
<g clip-path="url(#clip0_8_199)">
<path d="M11.7284 22.737V27.823C11.7284 30.366 10.5756 31.283 8.74332 31.283C6.91107 31.283 5.75923 30.366 5.75923 27.823V8.596C5.75923 6.053 6.9121 5.086 8.74435 5.086C10.5766 5.086 11.7284 6.053 11.7284 8.596V12.411H17.1737V8.952C17.1737 3.255 14.2411 0 8.58686 0C2.9316 0 0 3.255 0 8.952V27.467C0 33.164 2.9316 36.42 8.58686 36.42C14.2411 36.42 17.1737 33.164 17.1737 27.467V22.737H11.7284ZM33.457 0.407L39.3213 36.013H33.5095L32.5142 29.553H25.4466L24.4512 36.013H19.1635L25.0277 0.407H33.457ZM28.9022 6.714L26.1795 24.721H31.7288L29.0072 6.713H28.9032L28.9022 6.714ZM59.898 36.013H54.0338C53.7199 35.097 53.5099 34.537 53.5099 31.638V26.043C53.5099 22.737 52.358 21.516 49.7404 21.516H47.7506V36.013H41.9914V0.407H50.6833C56.6515 0.407 59.2166 3.103 59.2166 8.597V11.394C59.2166 15.056 58.0123 17.396 55.4471 18.566C58.3272 19.837 59.2691 22.482 59.2691 26.196V31.689C59.2691 33.419 59.3216 34.69 59.897 36.013H59.898ZM50.5258 5.493H47.7506V16.43H50.0018C52.1491 16.43 53.4574 15.515 53.4574 12.666V9.156C53.4574 6.613 52.568 5.494 50.5258 5.494V5.493ZM77.4505 0.407L83.3148 36.013H77.5031L76.5087 29.553H69.4401L68.4458 36.013H63.157L69.0212 0.407H77.4516H77.4505ZM72.8957 6.714L70.173 24.721H75.7233L73.0007 6.713H72.8957V6.714ZM88.6427 0.407H82.831L88.4852 36.013H97.0721L102.726 0.407H97.4385L93.0926 29.45H92.9876L88.6427 0.407ZM116.536 0.407L122.4 36.013H116.589L115.594 29.553H108.526L107.53 36.013H102.243L108.107 0.407H116.536ZM111.981 6.714L109.259 24.721H114.809L112.086 6.713H111.981V6.714ZM138.193 36.013H144.109V0.407H138.978V21.719H138.873L133.061 0.407H125.836V36.013H131.02V10.223H131.124L138.193 36.013Z" fill="#9C9C9C"/>
</g>
<defs>
<clipPath id="clip0_8_199">
<rect width="144.109" height="38" fill="white"/>
</clipPath>
</defs>
</svg>
