<svg width="157" height="39" viewBox="0 0 157 39" fill="none" xmlns="http://www.w3.org/2000/svg">
<path fill-rule="evenodd" clip-rule="evenodd" d="M23.6997 16.8501H26.4964C29.3868 16.8501 30.9484 20.1421 29.0657 22.2751L26.3276 25.3751C26.6241 27.2137 27.6236 28.876 29.1264 30.0301C30.6307 31.1848 32.5274 31.7468 34.4389 31.6041C36.3504 31.4614 38.1365 30.6245 39.4415 29.2601C40.7454 27.8962 41.4715 26.1045 41.4744 24.2431C41.4742 23.9193 41.5397 23.5986 41.6672 23.2994C41.7947 23.0002 41.9817 22.7284 42.2174 22.4995C42.4532 22.2706 42.7332 22.0892 43.0413 21.9655C43.3493 21.8419 43.6795 21.7786 44.0128 21.7791C44.6857 21.7794 45.331 22.0389 45.807 22.5009C46.2831 22.9628 46.5511 23.5894 46.5522 24.2431C46.552 26.829 45.7136 29.3492 44.1559 31.4461C42.9896 33.0129 41.4609 34.2917 39.6929 35.1796C37.9248 36.0674 35.9669 36.5395 33.9767 36.5578C31.9865 36.5761 30.0197 36.1401 28.2347 35.2849C26.4496 34.4297 24.8963 33.1792 23.6997 31.6341C22.5031 33.1792 20.9498 34.4297 19.1648 35.2849C17.3798 36.1401 15.413 36.5761 13.4228 36.5578C11.4326 36.5395 9.47462 36.0674 7.70657 35.1796C5.93853 34.2917 4.40981 33.0129 3.24354 31.4461C1.68547 29.3493 0.846681 26.8291 0.846192 24.2431C0.845921 23.9192 0.911441 23.5984 1.039 23.2992C1.16656 22.9999 1.35365 22.728 1.58955 22.4991C1.82545 22.2702 2.10552 22.0888 2.41372 21.9653C2.72191 21.8417 3.05218 21.7784 3.38559 21.7791C4.05846 21.7794 4.70374 22.0389 5.17982 22.5009C5.6559 22.9628 5.92389 23.5894 5.92498 24.2431C5.92213 26.1075 6.64504 27.9039 7.94867 29.2721C8.92206 30.2935 10.1721 31.0276 11.5554 31.3903C12.9387 31.753 14.3992 31.7295 15.7694 31.3226C17.1395 30.9156 18.3639 30.1417 19.3019 29.0895C20.24 28.0374 20.8538 26.7497 21.0728 25.3741L18.3327 22.2741C16.4511 20.1421 18.0116 16.8511 20.9061 16.8511H23.6997V16.8501Z" fill="#9C9C9C"/>
<path d="M35.5486 10.2801C36.2152 10.2806 36.8754 10.1535 37.4914 9.90614C38.1074 9.65874 38.6673 9.29587 39.1389 8.83823C39.6105 8.3806 39.9848 7.83718 40.2402 7.23901C40.4956 6.64085 40.6272 5.99966 40.6274 5.35207C40.6272 4.70449 40.4956 4.0633 40.2402 3.46513C39.9848 2.86697 39.6105 2.32355 39.1389 1.86592C38.6673 1.40828 38.1074 1.0454 37.4914 0.798008C36.8754 0.550613 36.2152 0.423548 35.5486 0.424074C34.8821 0.42368 34.222 0.550841 33.6061 0.798295C32.9902 1.04575 32.4305 1.40865 31.959 1.86627C31.4875 2.32389 31.1133 2.86727 30.858 3.46537C30.6026 4.06347 30.4711 4.70457 30.4708 5.35207C30.4711 5.99958 30.6026 6.64068 30.858 7.23878C31.1133 7.83688 31.4875 8.38026 31.959 8.83788C32.4305 9.2955 32.9902 9.6584 33.6061 9.90585C34.222 10.1533 34.8821 10.2805 35.5486 10.2801ZM11.8498 10.2801C12.5163 10.2805 13.1764 10.1533 13.7923 9.90585C14.4082 9.6584 14.9679 9.2955 15.4395 8.83788C15.911 8.38026 16.2851 7.83688 16.5404 7.23878C16.7958 6.64068 16.9273 5.99958 16.9276 5.35207C16.9273 4.70457 16.7958 4.06347 16.5404 3.46537C16.2851 2.86727 15.911 2.32389 15.4395 1.86627C14.9679 1.40865 14.4082 1.04575 13.7923 0.798295C13.1764 0.550841 12.5163 0.42368 11.8498 0.424074C11.1832 0.423548 10.5231 0.550613 9.90703 0.798008C9.29099 1.0454 8.73117 1.40828 8.25953 1.86592C7.78789 2.32355 7.41368 2.86697 7.15827 3.46513C6.90286 4.0633 6.77127 4.70449 6.771 5.35207C6.77127 5.99966 6.90286 6.64085 7.15827 7.23901C7.41368 7.83718 7.78789 8.3806 8.25953 8.83823C8.73117 9.29587 9.29099 9.65874 9.90703 9.90614C10.5231 10.1535 11.1832 10.2806 11.8498 10.2801ZM81.7768 1.62807C82.5592 1.62807 83.2015 1.84507 83.7038 2.27907C84.2061 2.71307 84.4573 3.28307 84.4573 3.98907V28.3241C84.4573 29.0571 84.2205 29.6401 83.745 30.0741C83.2715 30.5081 82.6425 30.7251 81.8613 30.7251C81.0789 30.7251 80.451 30.5081 79.9755 30.0751C79.5009 29.6401 79.2632 29.0571 79.2632 28.3251V27.3071C78.6486 28.4191 77.7552 29.2871 76.5817 29.9111C75.4371 30.5351 74.1246 30.8471 72.6444 30.8471C70.8842 30.8471 69.3073 30.4131 67.9115 29.5451C66.5424 28.6771 65.4678 27.4561 64.6855 25.8821C63.931 24.2821 63.5542 22.4511 63.5542 20.3891C63.5542 18.3271 63.931 16.5231 64.6855 14.9761C65.4678 13.4301 66.5424 12.2361 67.9115 11.3951C69.2795 10.5541 70.8575 10.1331 72.6444 10.1331C74.1246 10.1331 75.4371 10.4321 76.5827 11.0291C77.6991 11.5989 78.617 12.4767 79.221 13.5521V3.90707C79.221 3.22907 79.4443 2.68607 79.8911 2.27907C80.3666 1.84507 80.9945 1.62807 81.7768 1.62807ZM74.0268 26.9001C75.7026 26.9001 76.9873 26.3441 77.8807 25.2311C78.802 24.1191 79.2632 22.5311 79.2632 20.4701C79.2632 18.4081 78.802 16.8341 77.8807 15.7501C76.9873 14.6371 75.717 14.0801 74.069 14.0801C72.3933 14.0801 71.0942 14.6231 70.173 15.7091C69.2517 16.7941 68.7905 18.3541 68.7905 20.3891C68.7905 22.4511 69.2517 24.0511 70.173 25.1911C71.0942 26.3311 72.3789 26.9001 74.0268 26.9001ZM99.1853 30.8471C97.0916 30.8471 95.248 30.4271 93.6566 29.5861C92.092 28.7451 90.8773 27.5381 90.0117 25.9641C89.146 24.3901 88.7126 22.5591 88.7126 20.4701C88.7126 18.3811 89.145 16.5631 90.0117 15.0171C90.8773 13.4431 92.092 12.2361 93.6556 11.3951C95.248 10.5541 97.0916 10.1331 99.1853 10.1331C101.28 10.1331 103.109 10.5531 104.673 11.3951C106.241 12.2117 107.513 13.4759 108.318 15.0171C109.183 16.5631 109.617 18.3811 109.617 20.4701C109.617 22.5601 109.183 24.3901 108.318 25.9641C107.513 27.5052 106.241 28.7694 104.673 29.5861C103.109 30.4261 101.28 30.8471 99.1863 30.8471H99.1853ZM99.1441 26.9001C100.848 26.9001 102.146 26.3571 103.039 25.2721C103.934 24.1871 104.38 22.5861 104.38 20.4701C104.38 18.3811 103.934 16.7941 103.039 15.7091C102.146 14.5961 100.861 14.0401 99.1853 14.0401C97.5105 14.0401 96.2104 14.5961 95.2902 15.7091C94.3967 16.7941 93.9489 18.3811 93.9489 20.4701C93.9489 22.5861 94.3957 24.1871 95.2902 25.2721C96.1837 26.3571 97.4683 26.9001 99.1441 26.9001ZM131.282 10.2151C132.064 10.2151 132.692 10.4321 133.166 10.8651C133.642 11.3001 133.879 11.8831 133.879 12.6151V28.6901C133.879 31.8101 132.985 34.1701 131.198 35.7721C129.41 37.3721 126.772 38.1721 123.28 38.1721C120.237 38.1721 117.695 37.6171 115.657 36.5041C114.623 35.9071 114.107 35.1881 114.107 34.3471C114.107 33.7501 114.247 33.2761 114.526 32.9231C114.832 32.5701 115.224 32.3931 115.698 32.3931C115.95 32.3931 116.257 32.4481 116.62 32.5571C116.983 32.6921 117.361 32.8421 117.751 33.0041C118.625 33.3656 119.521 33.6781 120.432 33.9401C121.242 34.1571 122.163 34.2661 123.197 34.2661C126.855 34.2661 128.684 32.5301 128.684 29.0561V26.4521C128.07 27.5651 127.176 28.4321 126.004 29.0571C124.831 29.6541 123.49 29.9521 121.982 29.9521C120.194 29.9521 118.603 29.5451 117.206 28.7321C115.838 27.8901 114.763 26.7241 113.981 25.2321C113.199 23.7391 112.808 22.0171 112.808 20.0631C112.808 18.1101 113.185 16.3871 113.939 14.8951C114.721 13.3751 115.81 12.2091 117.206 11.3951C118.603 10.5541 120.194 10.1331 121.982 10.1331C123.49 10.1331 124.831 10.4451 126.004 11.0691C127.146 11.6373 128.082 12.5322 128.684 13.6331V12.5751C128.684 11.8701 128.922 11.3001 129.397 10.8651C129.871 10.4321 130.5 10.2151 131.282 10.2151ZM123.365 26.0051C125.041 26.0051 126.339 25.4751 127.26 24.4181C128.21 23.3591 128.684 21.9081 128.684 20.0631C128.684 18.1911 128.21 16.7261 127.26 15.6681C126.339 14.6101 125.041 14.0811 123.365 14.0811C121.717 14.0811 120.418 14.6101 119.469 15.6681C118.52 16.7261 118.044 18.1911 118.044 20.0631C118.044 21.9081 118.52 23.3591 119.469 24.4181C120.418 25.4761 121.717 26.0051 123.365 26.0051ZM146.717 30.8471C143.673 30.8471 141.216 30.2641 139.344 29.0971C138.451 28.5821 138.004 27.8491 138.004 26.9001C138.004 26.3571 138.158 25.9231 138.464 25.5981C138.772 25.2451 139.149 25.0681 139.596 25.0681C140.07 25.0681 140.727 25.2861 141.565 25.7201C142.458 26.1271 143.268 26.4391 143.994 26.6561C144.749 26.8731 145.698 26.9811 146.842 26.9811C148.016 26.9811 148.924 26.7911 149.566 26.4111C150.236 26.0311 150.571 25.5031 150.571 24.8241C150.571 24.3641 150.432 23.9971 150.152 23.7261C149.9 23.4541 149.426 23.2101 148.728 22.9931C148.057 22.7491 147.024 22.4781 145.628 22.1791C143.143 21.6911 141.355 20.9991 140.266 20.1041C139.204 19.2091 138.674 17.9741 138.674 16.4011C138.674 15.2071 139.037 14.1351 139.763 13.1851C140.489 12.2091 141.48 11.4631 142.737 10.9471C144.022 10.4051 145.474 10.1331 147.093 10.1331C148.267 10.1331 149.398 10.2831 150.487 10.5811C151.526 10.8313 152.516 11.2433 153.42 11.8011C154.313 12.3441 154.76 13.0631 154.76 13.9591C154.76 14.5011 154.607 14.9631 154.299 15.3421C153.992 15.6951 153.614 15.8721 153.168 15.8721C152.861 15.8721 152.553 15.8171 152.246 15.7091C151.879 15.5273 151.516 15.3372 151.157 15.1391C150.347 14.7321 149.649 14.4341 149.063 14.2441C148.476 14.0271 147.75 13.9181 146.884 13.9181C145.851 13.9181 145.027 14.1221 144.413 14.5281C143.826 14.9351 143.533 15.4921 143.533 16.1971C143.533 16.8751 143.841 17.3911 144.455 17.7431C145.07 18.0961 146.257 18.4491 148.016 18.8021C149.887 19.1821 151.353 19.6151 152.414 20.1041C153.475 20.5921 154.229 21.2031 154.676 21.9351C155.151 22.6681 155.388 23.6041 155.388 24.7431C155.388 26.5881 154.592 28.0671 153.001 29.1791C151.436 30.2911 149.342 30.8471 146.717 30.8471Z" fill="#9C9C9C"/>
</svg>
