<svg width="164" height="38" viewBox="0 0 164 38" fill="none" xmlns="http://www.w3.org/2000/svg">
<path d="M2.68802 30.072C1.87601 30.072 1.21801 29.82 0.714005 29.316C0.238002 28.812 0 28.154 0 27.342V2.772C0 1.96 0.224002 1.33 0.672005 0.882C1.14801 0.434 1.79201 0.21 2.60402 0.21H17.3461C19.0541 0.21 19.9081 0.938 19.9081 2.394C19.9081 3.822 19.0541 4.536 17.3461 4.536H5.33404V12.6H16.5061C18.2141 12.6 19.0681 13.328 19.0681 14.784C19.0681 16.212 18.2141 16.926 16.5061 16.926H5.33404V27.342C5.33404 28.154 5.09604 28.812 4.62003 29.316C4.14403 29.82 3.50003 30.072 2.68802 30.072ZM27.6132 30.072C26.8572 30.072 26.2272 29.862 25.7232 29.442C25.2472 28.994 25.0092 28.364 25.0092 27.552V2.478C25.0092 1.666 25.2472 1.05 25.7232 0.63C26.2272 0.21 26.8572 0 27.6132 0C28.3692 0 28.9992 0.21 29.5032 0.63C30.0072 1.05 30.2592 1.666 30.2592 2.478V27.552C30.2592 28.364 30.0072 28.994 29.5032 29.442C28.9992 29.862 28.3692 30.072 27.6132 30.072ZM51.9274 24.192C52.4034 24.192 52.7814 24.374 53.0614 24.738C53.3694 25.102 53.5234 25.592 53.5234 26.208C53.5234 27.076 53.0054 27.804 51.9694 28.392C51.0174 28.924 49.9394 29.358 48.7353 29.694C47.5313 30.002 46.3833 30.156 45.2913 30.156C41.9873 30.156 39.3693 29.204 37.4373 27.3C35.5053 25.396 34.5392 22.792 34.5392 19.488C34.5392 17.388 34.9593 15.526 35.7993 13.902C36.6393 12.278 37.8153 11.018 39.3273 10.122C40.8673 9.226 42.6033 8.778 44.5353 8.778C46.3833 8.778 47.9933 9.184 49.3654 9.996C50.7374 10.808 51.8014 11.956 52.5574 13.44C53.3134 14.924 53.6914 16.674 53.6914 18.69C53.6914 19.894 53.1594 20.496 52.0954 20.496H39.7053C39.8733 22.428 40.4193 23.856 41.3433 24.78C42.2673 25.676 43.6113 26.124 45.3753 26.124C46.2713 26.124 47.0553 26.012 47.7273 25.788C48.4273 25.564 49.2113 25.256 50.0794 24.864C50.9194 24.416 51.5354 24.192 51.9274 24.192ZM44.6603 12.474C43.2323 12.474 42.0843 12.922 41.2163 13.818C40.3763 14.714 39.8723 16.002 39.7043 17.682H49.1964C49.1404 15.974 48.7203 14.686 47.9363 13.818C47.1523 12.922 46.0603 12.474 44.6603 12.474ZM75.3835 25.956C75.8875 26.46 76.1395 27.034 76.1395 27.678C76.1395 28.294 75.9015 28.854 75.4255 29.358C74.9495 29.834 74.3895 30.072 73.7455 30.072C73.0455 30.072 72.4435 29.778 71.9395 29.19L66.0175 22.638L60.0954 29.19C59.5634 29.75 58.9614 30.03 58.2894 30.03C57.6734 30.03 57.1274 29.792 56.6514 29.316C56.1754 28.84 55.9374 28.294 55.9374 27.678C55.9374 27.034 56.1894 26.46 56.6934 25.956L62.8255 19.278L57.0294 12.978C56.5254 12.474 56.2734 11.9 56.2734 11.256C56.2734 10.612 56.5114 10.066 56.9874 9.618C57.4634 9.142 58.0094 8.904 58.6254 8.904C59.2974 8.904 59.8994 9.184 60.4314 9.744L66.0175 15.876L71.6035 9.744C72.1355 9.184 72.7375 8.904 73.4095 8.904C74.0535 8.904 74.5995 9.142 75.0475 9.618C75.5235 10.066 75.7615 10.612 75.7615 11.256C75.7615 11.9 75.5095 12.474 75.0055 12.978L69.2095 19.278L75.3835 25.956ZM98.6197 14.532C100.328 15.008 101.644 15.876 102.568 17.136C103.52 18.396 103.996 19.936 103.996 21.756C103.996 24.276 103.086 26.25 101.266 27.678C99.4737 29.106 96.9957 29.82 93.8317 29.82H82.9956C82.1836 29.82 81.5396 29.596 81.0636 29.148C80.6156 28.7 80.3916 28.07 80.3916 27.258V2.772C80.3916 1.96 80.6156 1.33 81.0636 0.882C81.5396 0.434 82.1836 0.21 82.9956 0.21H93.4107C96.4907 0.21 98.8987 0.896 100.635 2.268C102.399 3.612 103.281 5.502 103.281 7.938C103.281 9.506 102.861 10.864 102.021 12.012C101.209 13.16 100.075 14 98.6187 14.532H98.6197ZM85.6836 12.684H92.5297C96.2537 12.684 98.1157 11.298 98.1157 8.526C98.1157 7.126 97.6537 6.09 96.7297 5.418C95.8057 4.746 94.4057 4.41 92.5297 4.41H85.6836V12.684ZM93.2437 25.62C95.2037 25.62 96.6317 25.27 97.5277 24.57C98.4237 23.87 98.8717 22.778 98.8717 21.294C98.8717 19.81 98.4097 18.704 97.4857 17.976C96.5897 17.248 95.1757 16.884 93.2437 16.884H85.6836V25.62H93.2437ZM111.204 30.072C110.448 30.072 109.818 29.862 109.314 29.442C108.838 28.994 108.6 28.364 108.6 27.552V2.478C108.6 1.666 108.838 1.05 109.314 0.63C109.818 0.21 110.448 0 111.204 0C111.96 0 112.59 0.21 113.094 0.63C113.598 1.05 113.85 1.666 113.85 2.478V27.552C113.85 28.364 113.598 28.994 113.094 29.442C112.59 29.862 111.96 30.072 111.204 30.072ZM128.63 30.156C126.53 30.156 124.682 29.722 123.086 28.854C121.518 27.986 120.3 26.74 119.432 25.116C118.564 23.492 118.13 21.602 118.13 19.446C118.13 17.29 118.564 15.414 119.432 13.818C120.3 12.194 121.518 10.948 123.086 10.08C124.682 9.212 126.53 8.778 128.63 8.778C130.73 8.778 132.564 9.212 134.132 10.08C135.704 10.923 136.979 12.2277 137.786 13.818C138.654 15.414 139.088 17.29 139.088 19.446C139.088 21.602 138.654 23.492 137.786 25.116C136.979 26.7063 135.704 28.011 134.132 28.854C132.564 29.722 130.73 30.156 128.63 30.156ZM128.588 26.082C130.296 26.082 131.598 25.522 132.494 24.402C133.39 23.282 133.838 21.63 133.838 19.446C133.838 17.29 133.39 15.652 132.494 14.532C131.598 13.384 130.31 12.81 128.63 12.81C126.95 12.81 125.648 13.384 124.724 14.532C123.828 15.652 123.38 17.29 123.38 19.446C123.38 21.63 123.828 23.282 124.724 24.402C125.62 25.522 126.908 26.082 128.588 26.082ZM160.81 8.862C161.594 8.862 162.224 9.086 162.7 9.534C163.176 9.982 163.414 10.584 163.414 11.34V27.93C163.414 31.15 162.518 33.586 160.726 35.238C158.934 36.89 156.288 37.716 152.788 37.716C149.736 37.716 147.188 37.142 145.144 35.994C144.108 35.378 143.59 34.636 143.59 33.768C143.59 33.152 143.73 32.662 144.01 32.298C144.318 31.934 144.71 31.752 145.186 31.752C145.438 31.752 145.746 31.808 146.11 31.92C146.474 32.06 146.852 32.214 147.244 32.382C148.252 32.802 149.148 33.124 149.932 33.348C150.744 33.572 151.668 33.684 152.704 33.684C156.372 33.684 158.206 31.892 158.206 28.308V25.62C157.59 26.768 156.694 27.664 155.518 28.308C154.342 28.924 152.998 29.232 151.486 29.232C149.694 29.232 148.098 28.812 146.698 27.972C145.326 27.104 144.248 25.9 143.464 24.36C142.68 22.82 142.288 21.042 142.288 19.026C142.288 17.01 142.666 15.232 143.422 13.692C144.206 12.124 145.298 10.92 146.698 10.08C148.098 9.212 149.694 8.778 151.486 8.778C152.998 8.778 154.342 9.1 155.518 9.744C156.664 10.3302 157.602 11.2537 158.206 12.39V11.298C158.206 10.57 158.444 9.982 158.92 9.534C159.396 9.086 160.026 8.862 160.81 8.862ZM152.872 25.158C154.552 25.158 155.854 24.612 156.778 23.52C157.73 22.428 158.206 20.93 158.206 19.026C158.206 17.094 157.73 15.582 156.778 14.49C155.854 13.398 154.552 12.852 152.872 12.852C151.22 12.852 149.918 13.398 148.966 14.49C148.014 15.582 147.538 17.094 147.538 19.026C147.538 20.93 148.014 22.428 148.966 23.52C149.918 24.612 151.22 25.158 152.872 25.158Z" fill="#9C9C9C"/>
</svg>
