<svg width="144" height="50" viewBox="0 0 144 50" fill="none" xmlns="http://www.w3.org/2000/svg">
<g clip-path="url(#clip0_8_195)">
<path d="M25.6432 10.784L20.9062 39.082H14.1001L15.8294 28.864H8.49834L6.80402 39.082H0L4.77517 10.784H11.5432L9.51328 22.732H16.8443L18.8763 10.784H25.6443H25.6432ZM39.6023 39.082L39.8287 32.912H33.5497L31.7072 39.082H24.5254L34.1889 10.784H46.5957L46.747 39.082H39.6033H39.6023ZM38.0614 17.662L35.0917 27.645H40.0171L40.4299 17.663H38.0614V17.662ZM75.9487 10.784L71.2106 39.082H64.4045L59.6685 23.598L57.1116 39.083H50.3045L55.0796 10.784H62.0731L66.736 25.248L69.1787 10.784H75.9477H75.9487ZM91.8265 10.784C95.1101 10.784 97.454 11.649 98.857 13.378C99.8853 14.688 100.398 16.326 100.398 18.291C100.398 18.999 100.336 19.745 100.212 20.531L98.7448 29.296C98.2435 32.256 97.0144 34.628 95.0597 36.41C93.1039 38.192 90.5728 39.082 87.4631 39.082H76.5221L81.2983 10.784H91.8265ZM89.4569 16.916H87.0132L84.3441 32.95H87.916C89.0936 32.95 90.0087 32.622 90.6602 31.968C91.3376 31.286 91.8008 30.186 92.0499 28.667L93.142 22.221C93.2367 21.701 93.2872 21.175 93.2923 20.648C93.2923 18.158 92.0149 16.915 89.4569 16.915V16.916ZM120.55 39.082H101.674L106.452 10.784H125.327L124.274 16.916H112.167L111.302 22.222H121.303L120.251 28.352H110.249L109.497 32.951H121.605L120.551 39.082H120.55ZM142.027 39.082H124.881L129.657 10.784H136.425L132.703 32.951H143.08L142.027 39.082ZM75.6276 44.118H141.036L138.992 50H73.5843L75.6276 44.118ZM7.154 0H78.694L76.6497 5.882H5.10971L7.154 0Z" fill="#9C9C9C"/>
</g>
<defs>
<clipPath id="clip0_8_195">
<rect width="143.08" height="50" fill="white"/>
</clipPath>
</defs>
</svg>
