<svg width="208" height="41" viewBox="0 0 208 41" fill="none" xmlns="http://www.w3.org/2000/svg">
<g clip-path="url(#clip0_8_180)">
<path fill-rule="evenodd" clip-rule="evenodd" d="M13.9351 36.1229C13.8022 36.1217 13.6714 36.09 13.5527 36.0304C13.4339 35.9708 13.3304 35.8847 13.2501 35.7789C13.0219 35.4756 12.8678 35.1233 12.8001 34.7499C12.6916 34.2746 12.6082 33.7939 12.5501 33.3099C12.481 32.6866 12.4456 32.06 12.4441 31.4329C12.4235 30.0549 12.4282 28.6767 12.4581 27.2989C12.4761 26.4529 12.4841 25.7929 12.4841 25.3169V9.56489C12.4841 8.78889 12.4891 8.19889 12.4981 7.79389C12.5071 7.38889 12.5381 6.93089 12.5891 6.41989C12.6191 6.03989 12.6851 5.66389 12.7881 5.29689C12.8881 5.01389 13.0211 4.74389 13.1831 4.49089C13.3331 4.22589 13.5511 4.00689 13.8161 3.85689C14.1241 3.70289 14.4411 3.56689 14.7651 3.44689C15.1826 3.29171 15.6153 3.18109 16.0561 3.11689C16.6304 3.03305 17.2066 2.96237 17.7841 2.90489V1.44989L17.3341 0.999894H1.41199L0.98999 1.44989V2.69189C3.66201 2.85089 5.15602 3.60889 5.47202 4.96489C5.65602 6.10989 5.74402 7.26789 5.73602 8.42689V32.5539C5.78023 33.8071 5.72707 35.0619 5.57702 36.3069C5.50402 36.5009 5.39702 36.6789 5.26102 36.8349C5.05739 37.0784 4.84214 37.3121 4.61602 37.5349C4.43686 37.708 4.26536 37.8888 4.10201 38.0769V39.0019C17.6891 39.0019 26.0992 39.0899 29.3322 39.2669L30.4672 35.4349L29.7552 34.9319C24.5052 35.5929 19.2251 35.9899 13.9361 36.1219H13.9351V36.1229ZM39.1913 25.0769C39.1397 25.0913 39.0867 25.1001 39.0333 25.1029C38.7703 25.1029 38.6383 25.0069 38.6383 24.8129C38.6393 23.9369 38.7053 23.0619 38.8363 22.1959C38.9843 21.2519 39.2313 20.3259 39.5743 19.4349C39.9048 18.5315 40.3581 17.6778 40.9213 16.8979C41.5182 16.1045 42.2934 15.4626 43.1842 15.0242C44.075 14.5857 45.0565 14.363 46.0493 14.3739C46.7658 14.3341 47.4803 14.4814 48.1226 14.8012C48.765 15.121 49.3132 15.6023 49.7133 16.1979C50.5445 17.4297 50.9773 18.8871 50.9533 20.3729C50.9498 20.6453 50.8633 20.9101 50.7053 21.132C50.5474 21.3539 50.3255 21.5224 50.0693 21.6149C48.6256 22.1967 47.1515 22.6997 45.6533 23.1219C43.5462 23.7419 41.4461 24.3853 39.3533 25.0519C39.2985 25.0542 39.2442 25.0626 39.1913 25.0769ZM54.8514 33.3219C51.6864 35.2419 48.9533 36.2019 46.6533 36.2019C45.0952 36.2357 43.5652 35.7831 42.2763 34.9069C41.0773 34.1023 40.1239 32.9821 39.5213 31.6699C38.9279 30.354 38.6267 28.9253 38.6383 27.4819C50.1333 23.9059 55.9334 22.1169 56.0384 22.1169C56.4949 22.0235 56.9028 21.7696 57.1881 21.4011C57.4734 21.0327 57.6172 20.5742 57.5934 20.1089C57.6247 18.8116 57.3205 17.5282 56.7104 16.3829C56.1532 15.3585 55.3286 14.5045 54.3244 13.9119C53.3112 13.3172 52.2132 12.8805 51.0683 12.6169C49.8265 12.3357 48.5565 12.1982 47.2833 12.2069C44.9993 12.1715 42.7342 12.6267 40.6413 13.5419C38.7959 14.339 37.1654 15.5617 35.8832 17.1099C34.6744 18.6069 33.7415 20.3071 33.1282 22.1309C32.4922 24.0075 32.1712 25.9764 32.1782 27.9579C32.1782 32.0279 33.2782 35.0759 35.4742 37.1019C37.4602 38.9519 40.2643 39.8759 43.8843 39.8759C45.9599 39.8546 48.003 39.3575 49.8563 38.4229C52.0882 37.3113 54.2263 36.0204 56.2494 34.5629L55.6724 33.5349L54.8524 33.3219H54.8514ZM90.3606 5.45689C89.6542 3.61168 88.2669 2.10772 86.4846 1.25489C84.2768 0.326042 81.892 -0.106812 79.4986 -0.0131064C77.7519 -0.0231252 76.0112 0.189931 74.3185 0.620894C72.744 1.0218 71.2409 1.66372 69.8625 2.52389C68.5123 3.37504 67.4081 4.56436 66.6595 5.97389C65.8467 7.51566 65.4383 9.23837 65.4725 10.9809C65.4715 12.2282 65.7746 13.457 66.3555 14.5609C66.9103 15.6534 67.6611 16.6347 68.5705 17.4559C69.5485 18.3185 70.5879 19.1089 71.6805 19.8209C72.7772 20.5516 73.9129 21.2219 75.0825 21.8289C76.1821 22.3941 77.2636 22.9937 78.3255 23.6269C79.2056 24.1249 80.0316 24.7139 80.7906 25.3839C82.7406 27.1989 83.7166 28.9249 83.7166 30.5639C83.713 31.4345 83.531 32.2951 83.1819 33.0927C82.8327 33.8902 82.3238 34.6077 81.6866 35.2009C81.054 35.852 80.2952 36.3672 79.4566 36.7149C78.618 37.0626 77.7173 37.2354 76.8095 37.2229C75.7481 37.2534 74.6939 37.0406 73.7274 36.6009C72.7609 36.1611 71.9078 35.5061 71.2335 34.6859C69.8342 33.0835 69.0701 31.0242 69.0855 28.8969L68.0585 28.5269L62.8124 34.4199C64.0113 36.1551 65.6369 37.5522 67.5325 38.4769C69.4599 39.4225 71.5807 39.9069 73.7275 39.8919C75.6863 39.882 77.6326 39.5787 79.5016 38.9919C81.381 38.4261 83.1733 37.6033 84.8276 36.5469C86.4002 35.5426 87.7357 34.2085 88.7416 32.6369C89.7275 31.1425 90.2545 29.3922 90.2576 27.6019C90.2655 26.6411 90.096 25.6871 89.7576 24.7879C89.4446 23.9528 89.0091 23.1689 88.4656 22.4619C87.8258 21.677 87.0854 20.9796 86.2636 20.3879C85.3657 19.7107 84.428 19.088 83.4556 18.5229C82.2917 17.8597 81.1141 17.2209 79.9236 16.6069C79.0934 16.2045 78.2757 15.777 77.4715 15.3249C76.711 14.8804 75.971 14.402 75.2535 13.8909C74.518 13.3867 73.8458 12.7958 73.2515 12.1309C72.7292 11.5104 72.3025 10.8154 71.9855 10.0689C71.6336 9.26505 71.4541 8.39638 71.4585 7.51889C71.4423 6.80124 71.5702 6.08763 71.8347 5.42031C72.0993 4.75299 72.495 4.14553 72.9985 3.63389C73.5306 3.10204 74.1674 2.68653 74.8686 2.41369C75.5697 2.14085 76.3199 2.01662 77.0715 2.04889C78.0026 2.00868 78.931 2.17494 79.7903 2.53576C80.6496 2.89657 81.4183 3.44301 82.0416 4.13589C83.2903 5.5492 84.0768 7.31068 84.2956 9.18389L85.2186 9.47389L90.3606 5.45689ZM115.999 15.5919C115.528 14.7671 114.845 14.0829 114.022 13.6099C113.207 13.1441 112.327 12.8014 111.412 12.5929C110.43 12.3751 109.426 12.2687 108.42 12.2759C106.501 12.2489 104.593 12.5759 102.791 13.2409C101.245 13.8022 99.8285 14.6695 98.6257 15.7909C97.5079 16.8738 96.5809 18.1375 95.8837 19.5289C95.167 20.9286 94.6394 22.4173 94.3147 23.9559C93.9944 25.5121 93.8355 27.0971 93.8407 28.6859C93.8347 30.0359 94.0257 31.3799 94.4067 32.6739C94.7767 33.9269 95.3517 35.1099 96.1067 36.1759C96.9028 37.2754 97.9706 38.1496 99.2057 38.7129C100.624 39.3609 102.169 39.6819 103.727 39.6509C108.666 39.6509 113.306 37.4749 117.647 33.1239L117.12 32.3569L116.461 32.1989C113.245 34.6829 110.274 35.9249 107.55 35.9249C106.53 35.9413 105.521 35.71 104.611 35.2509C103.785 34.841 103.066 34.2442 102.512 33.5079C101.961 32.751 101.513 31.9245 101.18 31.0499C100.834 30.1766 100.582 29.2687 100.429 28.3419C100.289 27.4679 100.219 26.5839 100.218 25.6989C100.224 24.5739 100.321 23.4519 100.508 22.3429C100.715 21.1079 101.024 19.8929 101.431 18.7089C101.8 17.5518 102.442 16.5003 103.303 15.6429C103.681 15.2592 104.133 14.9551 104.631 14.7487C105.129 14.5423 105.664 14.4376 106.203 14.4409C106.923 14.4012 107.64 14.5632 108.274 14.9088C108.907 15.2543 109.431 15.7697 109.788 16.3969C110.603 17.8656 111.004 19.5281 110.948 21.2069L111.871 21.5769L116.854 18.6179C116.813 17.5557 116.52 16.5185 115.999 15.5919ZM125.662 23.4539C125.796 22.4159 126.03 21.3939 126.361 20.4019C126.664 19.4369 127.094 18.5179 127.639 17.6669C128.163 16.8786 128.862 16.2227 129.683 15.7509C130.568 15.2401 131.575 14.9798 132.596 14.9979C133.704 14.9697 134.797 15.2583 135.746 15.8299C136.628 16.3792 137.337 17.1673 137.789 18.1029C138.266 19.0699 138.611 20.0959 138.816 21.1549C139.033 22.2949 139.14 23.4549 139.133 24.6169C139.133 25.6739 139.124 26.5549 139.106 27.2589C139.078 28.107 139.017 28.9536 138.922 29.7969C138.844 30.6269 138.699 31.4479 138.487 32.2539C138.28 32.9639 138.011 33.6539 137.683 34.3159C137.381 34.9712 136.945 35.5561 136.404 36.0329C135.845 36.4894 135.212 36.8469 134.532 37.0899C133.708 37.3848 132.837 37.5281 131.962 37.5129C130.998 37.5247 130.054 37.2383 129.259 36.6929C128.484 36.1734 127.839 35.4818 127.375 34.6719C126.888 33.8003 126.507 32.8733 126.241 31.9109C125.961 30.9638 125.758 29.9957 125.634 29.0159C125.532 28.1697 125.479 27.3182 125.476 26.4659C125.475 25.459 125.537 24.4531 125.662 23.4539ZM122.393 37.1169C124.308 38.8609 127.349 39.7329 131.515 39.7329C133.055 39.7429 134.591 39.5659 136.089 39.2039C137.498 38.8536 138.841 38.2782 140.067 37.4999C141.299 36.7226 142.376 35.7233 143.244 34.5529C144.193 33.2258 144.899 31.7402 145.327 30.1659C145.859 28.2567 146.116 26.2816 146.092 24.2999C146.143 22.7043 145.847 21.1167 145.223 19.6473C144.599 18.1778 143.663 16.8615 142.48 15.7899C140.282 13.8179 137.092 12.8309 132.91 12.8309C128.727 12.8309 125.282 14.1259 122.575 16.7159C121.246 17.972 120.197 19.4946 119.497 21.1842C118.798 22.8737 118.463 24.692 118.515 26.5199C118.515 31.2419 119.806 34.7739 122.39 37.1169H122.393ZM163.651 16.1869C165.057 16.1869 166.059 16.4689 166.657 17.0329C167.214 17.7129 167.566 18.5389 167.671 19.4129C167.892 20.4429 168.029 21.4909 168.08 22.5439C168.115 23.4689 168.133 24.6629 168.133 26.1249C168.132 28.0233 168.119 29.9217 168.094 31.8199C168.085 32.3919 168.089 33.0659 168.106 33.8419C168.111 34.4199 168.146 34.9979 168.212 35.5719C168.265 35.9519 168.335 36.3659 168.423 36.8139C168.484 37.1899 168.609 37.5509 168.792 37.8839C168.95 38.1489 169.144 38.3899 169.37 38.5989C170.161 39.3166 171.202 39.6957 172.269 39.6549C173.588 39.6549 175.099 38.9849 176.804 37.6469C178.227 36.4635 179.582 35.2015 180.864 33.8669L180.258 32.9669H179.625C178.594 33.7941 177.333 34.2833 176.014 34.3679C175.735 34.3839 175.455 34.343 175.192 34.2476C174.929 34.1522 174.688 34.0043 174.484 33.8129C174.302 33.669 174.146 33.4952 174.022 33.2989C173.877 32.9532 173.784 32.5879 173.746 32.2149C173.645 31.4573 173.601 30.6931 173.614 29.9289C173.614 29.3479 173.645 28.4089 173.706 27.1149C173.755 26.1949 173.786 25.2741 173.799 24.3529V22.7669C173.816 21.0579 173.812 19.8739 173.786 19.2119C173.733 18.3087 173.632 17.4091 173.482 16.5169C173.417 15.6757 173.135 14.8656 172.665 14.1649C172.201 13.6614 171.646 13.2494 171.03 12.9499C170.193 12.545 169.27 12.3497 168.341 12.3809C165.248 12.3809 161.662 13.6499 157.585 16.1869L156.952 15.9489C156.918 14.9772 156.602 14.0363 156.043 13.2409C155.524 12.5609 154.632 12.2229 153.367 12.2229C152.609 12.2324 151.857 12.3617 151.139 12.6059C150.304 12.8859 149.507 13.2679 148.765 13.7419C147.965 14.2449 147.271 14.7119 146.682 15.1429C146.093 15.5739 145.412 16.0979 144.639 16.7149L145.614 18.0099C145.793 17.8939 145.974 17.7796 146.155 17.6669C146.462 17.4729 146.73 17.3149 146.959 17.1909C147.187 17.0679 147.46 16.9229 147.776 16.7549C148.059 16.6009 148.355 16.4719 148.66 16.3689C148.893 16.2889 149.137 16.2439 149.384 16.2369C149.689 16.2299 149.99 16.3069 150.254 16.4619C150.522 16.6389 150.724 16.8989 150.832 17.2019C150.964 17.5219 151.078 17.8469 151.174 18.1789C151.282 18.6259 151.344 19.0819 151.359 19.5409C151.395 20.1409 151.416 20.6249 151.423 20.9939C151.431 21.3629 151.435 21.9179 151.436 22.6589V23.1089C151.436 24.8349 151.304 30.1199 151.041 38.9639L151.7 39.3339L157.632 37.6159C157.456 36.8589 157.324 34.4719 157.236 30.4559C157.149 26.5275 157.106 22.5983 157.108 18.6689C160.166 17.0129 162.345 16.1849 163.646 16.1849L163.651 16.1869ZM189.224 25.1969C189.173 25.2122 189.12 25.2216 189.066 25.2249C188.803 25.2249 188.671 25.1279 188.67 24.9349C188.671 24.0579 188.737 23.1839 188.869 22.3179C189.017 21.3739 189.264 20.4479 189.606 19.5559C189.937 18.6529 190.389 17.7989 190.951 17.0189C191.548 16.2253 192.323 15.5832 193.214 15.1447C194.105 14.7063 195.087 14.4836 196.079 14.4949C196.796 14.455 197.51 14.6022 198.153 14.922C198.795 15.2418 199.343 15.7232 199.743 16.3189C200.575 17.5506 201.007 19.0081 200.982 20.4939C200.979 20.766 200.892 21.0306 200.734 21.2524C200.577 21.4742 200.355 21.6428 200.099 21.7359C198.656 22.3174 197.182 22.8204 195.684 23.2429C193.577 23.8628 191.476 24.5062 189.383 25.1729C189.33 25.1758 189.277 25.1842 189.225 25.1979H189.224V25.1969ZM204.884 33.4429C201.719 35.3639 198.986 36.3239 196.685 36.3229C195.127 36.3565 193.598 35.9042 192.308 35.0289C191.11 34.224 190.157 33.1039 189.554 31.7919C188.96 30.4755 188.659 29.046 188.67 27.6019C200.165 24.0269 205.965 22.2389 206.071 22.2389C206.528 22.1451 206.936 21.8909 207.221 21.5224C207.506 21.1538 207.65 20.6953 207.626 20.2299C207.658 18.9326 207.354 17.6492 206.743 16.5039C206.186 15.4795 205.362 14.6256 204.357 14.0329C203.344 13.4384 202.246 13.0018 201.101 12.7379C199.859 12.4566 198.589 12.3191 197.315 12.3279C195.032 12.2927 192.768 12.7479 190.675 13.6629C188.83 14.4599 187.199 15.6826 185.917 17.2309C184.708 18.7277 183.775 20.4279 183.162 22.2519C182.526 24.1284 182.205 26.0975 182.213 28.0789C182.213 32.1489 183.311 35.1959 185.508 37.2229C187.494 39.0729 190.297 39.9969 193.918 39.9969C195.994 39.9755 198.037 39.4785 199.89 38.5439C202.122 37.4321 204.26 36.1415 206.283 34.6849L205.706 33.6559L204.884 33.4429Z" fill="#9C9C9C"/>
</g>
<defs>
<clipPath id="clip0_8_180">
<rect width="208.001" height="41" fill="white"/>
</clipPath>
</defs>
</svg>
