<svg width="153" height="36" viewBox="0 0 153 36" fill="none" xmlns="http://www.w3.org/2000/svg">
<path d="M50.0513 35.52V0H40.8118L21.4929 27.408L18.2319 23.424C24.0622 22.56 27.3231 17.568 27.3231 12.24C27.3231 7.152 24.4574 2.88 20.6035 1.248C18.6766 0.432 15.8109 0 12.0064 0H0V35.52H8.94302V24.048H9.04183L17.4908 35.52H26.9279L30.1395 30.384H40.713V35.52H50.0513ZM8.94302 17.856V7.968H12.5005C16.0085 7.968 18.3801 9.696 18.3801 12.768C18.3801 16.032 16.1567 17.856 12.4511 17.856H8.94302ZM40.713 23.184H34.5863L40.6141 13.344H40.713V23.184ZM87.5259 35.52V0H78.5829L78.9781 22.464L64.7484 0H56.6947V35.52H65.6377L65.3907 13.824L79.4228 35.52H87.5259ZM114.493 35.52V27.552H103.129V21.456H114.147V13.488H103.129V7.968H114.493V0H94.1858V35.52H114.493ZM151.613 35.52L138.718 17.712L150.823 0H141.04L130.713 15.984H130.615V0H121.276V35.52H130.615V20.16H130.713L140.694 35.52H151.613Z" fill="#9C9C9C"/>
</svg>
