<svg width="200" height="49" viewBox="0 0 200 49" fill="none" xmlns="http://www.w3.org/2000/svg">
<g clip-path="url(#clip0_8_185)">
<path d="M54.3813 44.0141C51.0613 44.0141 48.5163 43.4461 46.7452 42.3101C45.0052 41.1421 44.1362 39.4371 44.1362 37.1961C44.1362 36.0601 44.5162 35.1281 45.2742 34.4021C46.0652 33.6451 47.0773 33.2661 48.3103 33.2661C49.0373 33.2981 49.5903 33.4861 49.9703 33.8341C50.3503 34.1501 50.5403 34.4501 50.5403 34.7341C50.5403 34.7651 50.3813 34.8761 50.0653 35.0651C49.7493 35.2551 49.4653 35.5391 49.2113 35.9171C48.9583 36.2971 48.8313 36.8171 48.8313 37.4801C48.8313 38.9641 49.2753 40.1161 50.1603 40.9371C51.0773 41.7261 52.4843 42.1201 54.3813 42.1201C55.6783 42.1201 56.8163 41.8681 57.7973 41.3631C58.7773 40.8581 59.5203 40.1951 60.0263 39.3741C60.5633 38.5221 60.8324 37.6381 60.8324 36.7221C60.8324 35.5861 60.5003 34.6081 59.8363 33.7871C59.1914 32.9555 58.3849 32.2629 57.4653 31.7511C56.5153 31.1831 55.2193 30.5351 53.5753 29.8091C51.6783 28.9571 50.1453 28.1841 48.9753 27.4891C47.7995 26.7902 46.7815 25.8552 45.9852 24.7431C45.1642 23.5751 44.7532 22.1391 44.7532 20.4341C44.7532 17.6881 45.6852 15.6361 47.5513 14.2791C49.4493 12.9211 51.9313 12.2431 54.9983 12.2431C57.4013 12.2431 59.4883 12.7481 61.2594 13.7581C63.0624 14.7681 63.9634 16.2521 63.9634 18.2081C63.9634 19.3451 63.5674 20.2921 62.7774 21.0501C62.0184 21.7761 61.0224 22.1391 59.7893 22.1391C59.0613 22.1071 58.5083 21.9331 58.1293 21.6181C57.7493 21.2711 57.5593 20.9551 57.5593 20.6711C57.5593 20.6391 57.7653 20.5291 58.1763 20.3391C58.6193 20.1501 58.9983 19.8661 59.3143 19.4871C59.6623 19.1081 59.8363 18.5871 59.8363 17.9251C59.8363 16.7571 59.3783 15.8411 58.4613 15.1781C57.5753 14.5151 56.4373 14.1841 55.0453 14.1841C53.1173 14.1841 51.6463 14.6421 50.6353 15.5571C49.6543 16.4411 49.1643 17.5461 49.1643 18.8721C49.1643 19.9761 49.4643 20.9081 50.0653 21.6651C50.6653 22.3911 51.6303 23.1171 52.9583 23.8431C54.1099 24.4486 55.2805 25.0172 56.4683 25.5481C58.4923 26.4631 60.0893 27.3001 61.2594 28.0581C62.464 28.8188 63.4846 29.8377 64.2474 31.0411C65.0694 32.2711 65.4814 33.8031 65.4814 35.6331C65.4814 37.2121 64.9754 38.6481 63.9634 39.9431C62.9834 41.2051 61.6384 42.1991 59.9313 42.9251C58.2553 43.6511 56.4053 44.0151 54.3813 44.0151V44.0141ZM78.3945 43.6361C76.2445 43.6361 74.5365 42.9881 73.2714 41.6941C72.0064 40.4001 71.3744 38.6951 71.3744 36.5801V27.8201C71.3744 27.0001 71.3424 26.4001 71.2794 26.0211C71.2484 25.6431 71.0584 25.3111 70.7094 25.0271C70.3624 24.7431 69.7774 24.6011 68.9554 24.6011C68.5754 24.6011 68.2914 24.5541 68.1014 24.4591C67.9114 24.3331 67.8174 24.0641 67.8174 23.6541C67.8174 23.4641 67.8804 23.2911 68.0074 23.1341C68.1334 22.9441 68.3234 22.8341 68.5764 22.8021C70.5684 22.5171 72.2764 22.1071 73.6984 21.5701C74.1414 21.4131 74.5045 21.3181 74.7895 21.2861H74.9315C75.4375 21.2861 75.6915 21.5861 75.6915 22.1861V36.5331C75.6915 37.9851 76.1495 39.1061 77.0665 39.8951C77.9554 40.6425 79.0832 41.0456 80.2445 41.0311C81.7305 41.0311 82.9945 40.6681 84.0385 39.9421C85.0825 39.2161 85.7785 38.4901 86.1255 37.7641V27.8211C86.1255 27.0001 86.0945 26.4011 86.0315 26.0211C85.9995 25.6431 85.8095 25.3111 85.4615 25.0271C85.1135 24.7431 84.5285 24.6011 83.7065 24.6011C83.3265 24.6011 83.0425 24.5541 82.8535 24.4591C82.6635 24.3331 82.5685 24.0641 82.5685 23.6541C82.5685 23.4641 82.6315 23.2911 82.7585 23.1341C82.8845 22.9441 83.0745 22.8341 83.3275 22.8021C85.3195 22.5171 87.0275 22.1071 88.4505 21.5701C88.8926 21.4131 89.2566 21.3181 89.5406 21.2861H89.6836C90.1896 21.2861 90.4426 21.5861 90.4426 22.1861V38.5701C90.4426 40.4331 91.6916 41.3641 94.1896 41.3641C94.7266 41.3641 94.9956 41.6641 94.9956 42.2641C94.9956 42.7051 94.7266 42.9741 94.1896 43.0681L86.5525 43.5891C86.3315 43.5891 86.2045 43.5101 86.1725 43.3531C86.1425 43.2261 86.1255 42.9901 86.1255 42.6431V39.9901H86.0315C85.3056 40.672 84.562 41.3349 83.8015 41.9781C83.2325 42.4201 82.4895 42.7991 81.5715 43.1151C80.6865 43.4621 79.6275 43.6351 78.3945 43.6351V43.6361ZM97.5906 43.2101C97.4801 43.2096 97.3712 43.1836 97.2723 43.1342C97.1735 43.0848 97.0873 43.0132 97.0206 42.9251C96.8946 42.7361 96.8306 42.5151 96.8306 42.2631C96.8626 41.8531 96.9576 41.6151 97.1156 41.5531C97.2746 41.4581 97.5586 41.4101 97.9696 41.4101C98.7916 41.4101 99.3766 41.2681 99.7246 40.9841C100.073 40.7001 100.263 40.3681 100.294 39.9901C100.358 39.6101 100.389 39.0111 100.389 38.1901V27.3471C100.389 26.5271 100.358 25.9271 100.294 25.5471C100.263 25.1691 100.073 24.8371 99.7246 24.5541C99.3766 24.2701 98.7916 24.1271 97.9696 24.1271C97.5896 24.1271 97.3056 24.0801 97.1166 23.9851C96.9266 23.8591 96.8316 23.5911 96.8316 23.1801C96.8316 22.9911 96.8946 22.8171 97.0216 22.6601C97.1476 22.4701 97.3376 22.3601 97.5906 22.3281C99.6456 22.0121 101.338 21.6021 102.666 21.0971C103.204 20.9391 103.567 20.8441 103.757 20.8131H103.899C104.405 20.8131 104.658 21.1131 104.658 21.7131V24.6481H104.8C105.907 23.5431 107.03 22.6751 108.168 22.0441C109.307 21.3811 110.334 21.0501 111.251 21.0501C112.295 21.0501 113.117 21.4441 113.718 22.2331C114.35 22.9911 114.666 23.8751 114.666 24.8851C114.666 25.7691 114.398 26.5581 113.86 27.2521C113.322 27.9471 112.579 28.2941 111.631 28.2941C111.218 28.3013 110.81 28.2036 110.445 28.0101C110.129 27.8201 109.955 27.6631 109.923 27.5371C109.955 27.4741 110.113 27.2841 110.397 26.9681C110.682 26.6211 110.824 26.2271 110.824 25.7851C110.824 25.2161 110.666 24.7591 110.35 24.4121C110.065 24.0641 109.67 23.8911 109.164 23.8911C108.627 23.8911 107.947 24.1591 107.125 24.6961C106.302 25.2011 105.496 25.8481 104.706 26.6371V38.1901C104.706 39.0111 104.737 39.6101 104.8 39.9901C104.864 40.3681 105.069 40.7001 105.417 40.9841C105.765 41.2681 106.35 41.4101 107.172 41.4101H107.457C107.71 41.4101 107.899 41.4581 108.026 41.5521C108.152 41.6471 108.231 41.8841 108.263 42.2621C108.263 42.5151 108.2 42.7361 108.073 42.9251C107.947 43.1151 107.757 43.2101 107.504 43.2101C105.845 43.12 104.185 43.0723 102.524 43.0671C101.101 43.0671 99.4566 43.1151 97.5906 43.2091V43.2101ZM171.258 43.6361C169.108 43.6361 167.195 43.1301 165.519 42.1201C163.843 41.0791 162.531 39.7211 161.582 38.0481C160.678 36.3928 160.205 34.5363 160.207 32.6501C160.207 30.2831 160.76 28.2311 161.867 26.4951C162.974 24.7271 164.381 23.3851 166.088 22.4701C167.796 21.5231 169.519 21.0501 171.258 21.0501C173.409 21.0501 175.322 21.5701 176.998 22.6121C178.642 23.5888 179.987 24.9971 180.887 26.6841C181.824 28.3112 182.315 30.1567 182.31 32.0341C182.31 34.4021 181.741 36.4701 180.603 38.2381C179.496 39.9741 178.089 41.3151 176.381 42.2621C174.674 43.1781 172.966 43.6361 171.258 43.6361ZM171.258 41.8841C173.409 41.8841 174.974 40.9681 175.954 39.1371C176.966 37.3071 177.472 34.9391 177.472 32.0351C177.472 29.3201 176.95 27.1111 175.907 25.4051C174.895 23.6701 173.345 22.8021 171.258 22.8021C169.077 22.8021 167.496 23.7021 166.515 25.5011C165.535 27.3001 165.045 29.6511 165.045 32.5561C165.045 35.2701 165.551 37.5121 166.563 39.2791C167.575 41.0161 169.14 41.8841 171.258 41.8841ZM194.262 43.8721C192.712 43.8721 191.384 43.3041 190.277 42.1681C189.171 41.0311 188.617 39.4061 188.617 37.2911V23.3701L185.866 23.4651C185.774 23.4658 185.683 23.4448 185.601 23.4036C185.518 23.3624 185.447 23.3022 185.392 23.2281C185.268 23.0468 185.202 22.832 185.202 22.6121C185.202 22.3281 185.25 22.0921 185.344 21.9021C185.471 21.6811 185.645 21.5551 185.866 21.5231C186.973 21.3031 187.827 20.9551 188.428 20.4821C189.06 19.9761 189.519 19.4401 189.803 18.8721C190.088 18.2721 190.436 17.3721 190.847 16.1721C191.005 15.7621 191.353 15.5571 191.89 15.5571C192.111 15.5571 192.333 15.6201 192.554 15.7471C192.775 15.8411 192.886 15.9991 192.886 16.2201L192.554 21.6181L198.104 21.2861H198.199C198.61 21.2861 198.815 21.5861 198.815 22.1861C198.815 22.5331 198.752 22.8651 198.625 23.1801C198.531 23.4651 198.404 23.6071 198.246 23.6071L192.934 23.4651V37.8591C192.934 38.9011 193.139 39.7691 193.55 40.4631C193.993 41.1581 194.704 41.5051 195.685 41.5051C196.665 41.5051 197.535 41.3311 198.293 40.9841C198.705 40.8261 198.957 40.7471 199.052 40.7471C199.274 40.7471 199.448 40.8421 199.574 41.0311C199.701 41.1891 199.827 41.4111 199.954 41.6941C199.988 41.7685 200.004 41.8495 200.001 41.9311C200.001 42.0571 199.906 42.1991 199.716 42.3571C198.799 42.9571 197.93 43.3521 197.108 43.5411C196.317 43.7611 195.368 43.8721 194.262 43.8721ZM117.598 42.9251C117.724 43.1151 117.914 43.2091 118.167 43.2091C119.81 43.1189 121.455 43.0716 123.1 43.0671C125.219 43.0671 127.195 43.1151 129.029 43.2091C129.133 43.2115 129.236 43.1865 129.328 43.1367C129.419 43.0868 129.496 43.0139 129.551 42.9251C129.677 42.7351 129.74 42.5151 129.74 42.2621C129.709 41.8841 129.63 41.6471 129.503 41.5521C129.408 41.4581 129.219 41.4101 128.934 41.4101H128.649C127.606 41.4101 126.863 41.3311 126.42 41.1731C125.977 41.0161 125.677 40.7311 125.519 40.3211C125.361 39.8791 125.282 39.1691 125.282 38.1911V23.4631H130.31C130.42 23.4626 130.529 23.4367 130.627 23.3874C130.726 23.3382 130.812 23.2669 130.879 23.1791C131.037 22.9901 131.116 22.7691 131.116 22.5161C131.084 22.1381 130.989 21.9011 130.831 21.8061C130.705 21.6801 130.499 21.6161 130.215 21.6161H125.282V18.7761C125.282 17.2611 125.345 15.9351 125.471 14.7981C125.589 13.6566 125.962 12.5563 126.562 11.5781C127.163 10.6001 128.096 10.1111 129.361 10.1111C129.506 10.1111 129.647 10.1191 129.783 10.1361C129.765 9.60562 129.8 9.07469 129.887 8.5511C129.822 8.54931 129.758 8.54831 129.693 8.5481C126.91 8.6111 124.744 9.6681 123.195 11.7211C121.677 13.7411 120.918 16.3771 120.918 19.6281V21.6171H118.072C117.661 21.6171 117.376 21.6641 117.218 21.7591C117.06 21.8221 116.965 22.0751 116.934 22.5161C116.934 22.7691 116.997 22.9901 117.123 23.1791C117.282 23.3691 117.487 23.4641 117.74 23.4641H120.918V38.1901C120.918 39.0431 120.886 39.6581 120.823 40.0371C120.792 40.3841 120.602 40.7001 120.254 40.9841C119.906 41.2681 119.321 41.4101 118.499 41.4101C118.088 41.4101 117.803 41.4581 117.645 41.5521C117.519 41.6151 117.44 41.8521 117.408 42.2621C117.408 42.5151 117.471 42.7361 117.598 42.9251Z" fill="#9C9C9C"/>
<path fill-rule="evenodd" clip-rule="evenodd" d="M142.953 9.865C142.952 10.5564 142.816 11.2409 142.55 11.8794C142.285 12.518 141.897 13.098 141.407 13.5865C140.918 14.0749 140.337 14.4622 139.698 14.7261C139.059 14.9901 138.374 15.1257 137.683 15.125C136.287 15.1261 134.947 14.5725 133.959 13.5862C132.971 12.5998 132.415 11.2613 132.413 9.865C132.413 9.17346 132.55 8.48879 132.815 7.85009C133.08 7.21139 133.469 6.63117 133.958 6.14255C134.448 5.65392 135.028 5.26647 135.667 5.00232C136.307 4.73816 136.991 4.60247 137.683 4.603C138.375 4.60234 139.059 4.73794 139.699 5.00205C140.338 5.26616 140.919 5.6536 141.408 6.14225C141.897 6.6309 142.286 7.21118 142.551 7.84994C142.816 8.4887 142.953 9.17342 142.953 9.865ZM137.683 12.495C138.029 12.4954 138.371 12.4277 138.691 12.2957C139.01 12.1637 139.301 11.9701 139.545 11.7259C139.79 11.4816 139.984 11.1916 140.117 10.8723C140.249 10.553 140.318 10.2107 140.318 9.865C140.318 9.51919 140.25 9.1768 140.117 8.85739C139.985 8.53798 139.79 8.24782 139.546 8.00348C139.301 7.75914 139.01 7.56542 138.691 7.43339C138.371 7.30136 138.029 7.2336 137.683 7.234C136.985 7.23373 136.315 7.51058 135.821 8.00371C135.327 8.49685 135.049 9.16594 135.048 9.864C135.049 10.5622 135.327 11.2316 135.821 11.7249C136.315 12.2183 136.985 12.4953 137.683 12.495ZM135.373 17.414V42.784C135.373 43.067 135.453 43.288 135.611 43.446C135.769 43.636 135.99 43.73 136.275 43.73C136.559 43.73 136.796 43.604 136.986 43.352C137.176 43.131 137.35 42.799 137.508 42.357C137.666 41.915 137.808 41.568 137.935 41.315H138.172C140.227 42.862 142.662 43.635 145.476 43.635C147.374 43.635 149.16 43.13 150.836 42.12C152.512 41.11 153.84 39.737 154.821 38C155.832 36.233 156.338 34.292 156.338 32.177C156.338 30.03 155.896 28.121 155.01 26.447C154.157 24.743 152.971 23.417 151.453 22.47C149.935 21.523 148.243 21.05 146.378 21.05C145.239 21.05 144.085 21.286 142.915 21.76C141.777 22.202 140.749 22.88 139.832 23.796H139.69V17.5C138.27 17.8685 136.777 17.8388 135.373 17.414ZM149.698 39.421C148.528 41.158 146.978 42.026 145.05 42.026C144.038 42.026 143.137 41.805 142.346 41.363C141.587 40.921 140.97 40.4 140.496 39.8C140.053 39.169 139.785 38.6 139.69 38.096V25.596C141.049 24.143 142.725 23.417 144.718 23.417C146.963 23.417 148.654 24.301 149.793 26.069C150.931 27.805 151.5 29.904 151.5 32.366C151.5 35.302 150.9 37.654 149.698 39.421ZM12.7001 0.366998C13.0355 0.127971 13.4372 -0.000488281 13.8491 -0.000488281C14.261 -0.000488281 14.6626 0.127971 14.9981 0.366998C23.5581 6.471 27.4382 13.788 27.6832 24.287C27.7962 29.3 27.3132 33.89 25.8422 37.855C24.3321 41.823 21.6491 45.488 17.6991 48.584C17.4531 48.7751 17.1656 48.9055 16.8598 48.9646C16.554 49.0237 16.2385 49.0098 15.9391 48.924C14.7291 48.577 14.5231 47.145 13.8491 46.253C13.1751 47.145 12.9711 48.576 11.7591 48.923C11.4598 49.0086 11.1445 49.0224 10.8389 48.9633C10.5333 48.9043 10.2459 48.774 10 48.583C6.05001 45.488 3.36599 41.823 1.85698 37.855C0.386973 33.89 -0.0970305 29.3 0.0159703 24.287C0.259972 13.788 4.14 6.47 12.7001 0.366998ZM17.1261 44.062C19.5981 41.792 21.0881 39.317 22.1401 36.47C23.4651 32.99 23.8471 29.144 23.7321 24.379C23.5421 16.192 21.6221 10.865 15.8091 5.919V20.387C18.0821 20.971 19.1021 23.197 19.1021 25.647C19.1021 28.099 18.0821 30.325 15.8091 30.909V42.746C15.8091 42.746 16.8651 43.719 17.1261 44.062ZM10.538 44.062C8.06603 41.792 6.61102 39.317 5.55801 36.47C4.234 32.99 3.852 29.144 3.968 24.379C4.158 16.209 6.06701 10.859 11.8561 5.919V20.387C9.58304 20.971 8.56203 23.197 8.56203 25.647C8.56203 28.099 9.58204 30.325 11.8561 30.909V42.746C11.8561 42.746 10.79 43.731 10.538 44.062ZM13.8321 23.017C13.1339 23.0165 12.4641 23.2932 11.97 23.7864C11.4759 24.2796 11.1978 24.9489 11.1971 25.647C11.1971 27.101 12.3771 28.278 13.8321 28.278C14.5302 28.2785 15.2 28.0018 15.6941 27.5086C16.1883 27.0154 16.4663 26.3461 16.4671 25.648C16.4671 24.195 15.2871 23.018 13.8321 23.018V23.017Z" fill="#9C9C9C"/>
</g>
<defs>
<clipPath id="clip0_8_185">
<rect width="200.001" height="49" fill="white"/>
</clipPath>
</defs>
</svg>
