<svg width="32" height="32" viewBox="0 0 32 32" fill="none" xmlns="http://www.w3.org/2000/svg">
<path d="M8.0675 10.7333C6.32187 12.4792 5.339 14.8455 5.334 17.3144C5.32901 19.7833 6.30229 22.1536 8.04083 23.9066C10.0008 19.3733 13.4942 15.5866 17.8542 13.3333C14.0909 16.5175 11.5506 20.91 10.6675 25.7599C14.1342 27.3999 18.4008 26.7999 21.2675 23.9333C25.2542 19.9466 26.3742 9.07994 26.6142 6.09327C26.6225 5.99837 26.61 5.90279 26.5774 5.81326C26.5449 5.72373 26.4931 5.64242 26.4257 5.57506C26.3583 5.5077 26.277 5.45591 26.1875 5.42335C26.098 5.3908 26.0024 5.37825 25.9075 5.38661C22.9208 5.62661 12.0542 6.74661 8.0675 10.7333Z" fill="url(#paint0_linear_29_1088)"/>
<defs>
<linearGradient id="paint0_linear_29_1088" x1="15.9753" y1="5.38409" x2="15.9753" y2="26.6592" gradientUnits="userSpaceOnUse">
<stop stop-color="#FFC800"/>
<stop offset="0.919271" stop-color="#F7B108"/>
<stop offset="1" stop-color="#F2A60D"/>
</linearGradient>
</defs>
</svg>
