<svg width="196" height="34" viewBox="0 0 196 34" fill="none" xmlns="http://www.w3.org/2000/svg">
<path d="M21.6442 32.9551C20.4708 32.9866 19.3084 32.7221 18.2641 32.1861C17.2255 31.6538 16.3396 30.8657 15.6901 29.8961C13.645 31.7746 10.9954 32.8596 8.22006 32.9551C3.23302 32.9551 0.530004 29.4911 1.44301 24.5251C2.13702 20.7911 5.24204 17.0491 6.11004 14.0451C4.43003 13.0371 1.93601 12.3351 0.767006 14.3951L0 13.9361C0.612004 11.6781 2.09102 10.1761 4.22803 10.1761C6.36505 10.1761 7.94506 11.4261 9.98207 10.2751H11.6071C10.7401 14.7731 8.54806 18.3711 7.37905 24.6691C6.66705 28.5291 7.99106 30.2831 10.2291 30.2831C11.8823 30.0798 13.4031 29.2758 14.5021 28.0241C13.6096 25.8277 13.1597 23.4768 13.1781 21.1061C13.1781 15.6361 15.7261 9.87009 20.0001 9.87009C22.1922 9.87009 23.8172 11.3721 23.8172 14.9351C23.8172 18.4971 21.6262 24.0121 18.8311 27.4751C18.9821 28.3001 19.4211 29.0471 20.0711 29.5881C20.7211 30.1281 21.5422 30.4281 22.3932 30.4361C26.4662 30.4361 29.3152 24.4161 29.3152 18.8481C29.3152 13.2801 26.8682 13.5311 27.0782 11.6511C27.0971 11.4162 27.1622 11.1873 27.2698 10.9776C27.3774 10.7679 27.5254 10.5815 27.7052 10.4291C28.0692 10.1191 28.5432 9.96409 29.0232 9.99609C30.2932 9.99609 31.9632 11.5791 31.9632 18.0031C31.9632 26.1891 27.5432 32.9551 21.6432 32.9551H21.6442ZM20.7221 12.6951C19.4521 12.6951 18.2281 17.3101 18.0731 22.0781C18.0139 23.0977 18.0323 24.1203 18.1281 25.1371C20.0433 22.0182 21.212 18.499 21.5432 14.8541C21.5342 13.2341 21.2332 12.6941 20.7211 12.6941L20.7221 12.6951ZM40.3293 32.7481C39.7967 32.8023 39.2587 32.7406 38.7523 32.5671C38.2478 32.3947 37.787 32.1141 37.4023 31.7451C37.02 31.3781 36.7235 30.9311 36.5343 30.4361C36.3454 29.9432 36.2688 29.4143 36.3103 28.8881C36.3103 26.6841 39.2153 15.6991 39.2153 13.8911C39.2153 13.0371 39.0143 12.5331 38.2473 12.5331C37.3915 12.6704 36.5945 13.0548 35.9543 13.6391V12.0831C37.2838 10.877 39 10.1849 40.7943 10.1311C41.3302 10.0834 41.8701 10.1516 42.3773 10.3311C42.8833 10.5111 43.3433 10.7961 43.7263 11.1691C44.1083 11.5411 44.4043 11.9911 44.5923 12.4891C44.7793 12.9851 44.8553 13.5161 44.8123 14.0441C44.8123 16.2481 41.9093 27.1881 41.9093 28.9871C41.9093 29.8421 42.1093 30.3461 42.8773 30.3461C43.7215 30.2057 44.5129 29.8422 45.1693 29.2931V30.7951C43.8448 32.0093 42.1256 32.7031 40.3293 32.7481ZM43.8903 0.999089C44.2883 0.987089 44.6843 1.05909 45.0513 1.21309C45.4173 1.36709 45.7463 1.59709 46.0123 1.88809C46.2794 2.17687 46.4791 2.52128 46.597 2.89651C46.7149 3.27175 46.7482 3.66846 46.6943 4.05809C46.5961 4.88999 46.1975 5.6574 45.5733 6.21609C44.9438 6.77989 44.1332 7.09953 43.2883 7.11709C42.8908 7.12968 42.4952 7.0567 42.1283 6.90309C41.7626 6.75031 41.4344 6.52002 41.1663 6.22809C40.8993 5.93931 40.6996 5.5949 40.5816 5.21967C40.4637 4.84443 40.4305 4.44772 40.4843 4.05809C40.5826 3.22621 40.9812 2.45884 41.6053 1.90009C42.235 1.33673 43.0456 1.01746 43.8903 1.00009V0.999089ZM55.1964 28.0341C54.9414 29.3921 55.0964 30.3371 56.0644 30.3371C56.9116 30.2067 57.7055 29.8419 58.3564 29.2841L58.4474 30.7951C57.118 32.0015 55.4018 32.694 53.6074 32.7481C50.4474 32.7481 49.2243 30.4901 49.6904 27.6831L52.7954 10.2751C53.8274 4.46309 53.4704 3.69809 50.3104 3.69809L50.5114 2.29509L60.0364 1.05309L55.1964 28.0331V28.0341ZM81.9826 27.9881C81.7266 29.3471 81.8266 30.3461 82.8496 30.3461C83.6987 30.1874 84.4902 29.8053 85.1426 29.2391V30.7951C83.8217 32.0151 82.1002 32.7097 80.3026 32.7481C79.3933 32.814 78.4917 32.5412 77.7716 31.9821C77.057 31.4285 76.5778 30.6257 76.4296 29.7341C75.663 30.7326 74.6791 31.5434 73.5525 32.1051C72.4202 32.6705 71.175 32.9733 69.9095 32.9911C63.8545 32.9911 61.3064 27.7281 62.4754 21.4031C63.6445 15.0791 69.0955 9.91509 75.2605 9.91509C76.718 9.88456 78.1597 10.2216 79.4526 10.8951L79.6076 10.0951C80.8136 3.90509 80.2566 3.69809 77.0965 3.69809L77.2515 2.29509L86.8216 1.05309L81.9816 27.9891L81.9826 27.9881ZM75.4155 12.1821C71.8995 12.1821 69.5625 16.2931 68.6395 21.3581C67.6715 26.6751 68.2835 30.3551 71.5895 30.3551C73.8265 30.3551 76.3745 27.6551 77.1415 23.5351L79.0236 13.1001C77.9354 12.4506 76.6818 12.1317 75.4155 12.1821ZM98.0737 32.9991C90.9957 32.9991 89.0596 27.9791 89.9276 23.1661L92.2377 10.2751C93.3067 4.45509 92.9507 3.65309 89.7906 3.65309L89.9906 2.25009L99.5437 1.05309L97.6077 11.9841C99.1016 10.708 100.987 9.98112 102.951 9.92409C109.115 9.92409 112.01 15.0881 110.896 21.4121C109.782 27.7371 104.111 33.0001 98.0737 33.0001V32.9991ZM101.38 12.3081C100.353 12.3282 99.3583 12.6687 98.5347 13.2821C97.7173 13.8907 97.1146 14.7434 96.8137 15.7171L95.3887 23.8141C94.5207 28.6271 96.2567 30.5881 98.4487 30.5881C101.654 30.5881 103.645 27.0801 104.713 21.3131C105.663 16.1491 104.796 12.3351 101.371 12.3351L101.38 12.3081ZM120.549 24.3271C120.549 28.1871 122.43 30.2471 126.028 30.2471C127.855 30.2471 130.512 28.9971 132.193 27.3411L132.905 28.9421C131.694 30.2051 130.243 31.2141 128.638 31.9101C127.026 32.6089 125.292 32.9821 123.535 33.0081C118.193 33.0081 114.576 29.0951 114.576 23.7781C114.576 15.9061 121.197 9.93309 127.563 9.93309C131.435 9.93309 133.617 12.0381 133.617 14.4941C133.572 18.3081 129.901 22.5911 120.549 24.3271ZM127.115 12.2361C124.211 12.2361 121.417 16.4011 120.649 22.3661C126.503 20.9621 128.996 17.0491 129.051 14.5391C129.042 13.1361 128.375 12.2361 127.106 12.2361H127.115ZM154.394 32.7481C153.485 32.8139 152.583 32.5411 151.863 31.9821C151.149 31.4284 150.67 30.6256 150.522 29.7341C149.784 30.7322 148.823 31.5446 147.716 32.1071C146.604 32.6731 145.377 32.9753 144.129 32.9901C138.175 32.9901 135.627 27.7281 136.823 21.4031C138.019 15.0791 143.38 9.92309 149.563 9.92309C150.873 9.91646 152.172 10.1739 153.38 10.6801H159.188L156.074 27.9881C155.818 29.3471 155.919 30.3461 156.942 30.3461C157.791 30.1872 158.582 29.8051 159.234 29.2391V30.7951C157.913 32.015 156.192 32.7096 154.394 32.7481ZM149.709 12.1821C146.293 12.1821 143.901 16.2931 142.987 21.3581C142.019 26.6751 142.686 30.3551 145.727 30.3551C148.065 30.3551 150.567 27.5481 151.28 23.5351L153.161 13.1001C152.134 12.4506 150.932 12.1303 149.718 12.1821H149.709ZM177.006 15.8431C175.627 15.8431 175.27 14.7911 174.869 13.6841C174.732 13.1245 174.403 12.6306 173.94 12.2881C173.473 11.9427 172.902 11.7686 172.321 11.7951C171.568 11.7552 170.826 11.9952 170.238 12.4691C169.655 12.9382 169.271 13.6099 169.161 14.3501C169.006 15.7091 170.028 16.8601 171.964 18.5151L174.558 20.6201C175.522 21.3379 176.271 22.3064 176.722 23.4201C177.171 24.5301 177.304 25.7401 177.106 26.9181C176.448 30.6781 173.289 32.9901 169.06 32.9901C163.964 32.9901 160.713 30.0301 161.069 28.0241C161.152 27.4971 161.422 27.0141 161.832 26.6661C162.242 26.3161 162.765 26.1221 163.307 26.1171C164.631 26.1171 165.133 27.1161 165.544 28.4201C165.808 29.1701 166.315 29.8121 166.987 30.2481C167.662 30.6844 168.46 30.8891 169.261 30.8311C170.053 30.8686 170.83 30.613 171.445 30.1131C172.055 29.6174 172.455 28.9106 172.567 28.1331C172.768 26.3331 171.654 25.2271 169.563 23.3641L167.015 21.1601C166.12 20.4868 165.419 19.5869 164.987 18.5531C164.557 17.5244 164.412 16.3991 164.567 15.2951C165.024 12.8841 167.307 9.89709 172.558 9.89709C176.631 9.89709 179.179 12.1551 178.951 13.9631C178.926 14.4618 178.711 14.932 178.351 15.2781C177.991 15.6261 177.51 15.8281 177.006 15.8431ZM195.645 12.6951H190.704L188.312 26.0271C187.8 28.7891 188.211 30.0401 189.736 30.0401C190.549 30.0401 191.827 29.5901 193.654 27.7371L193.754 29.6891C192.925 30.6568 191.896 31.4344 190.739 31.9691C189.577 32.5068 188.314 32.7905 187.033 32.8011C183.572 32.8011 181.837 30.3911 182.659 25.9281L185.051 12.6951H181.188L181.49 10.6351H185.389L186.412 4.67009H192.111L191.042 10.6341H195.983L195.645 12.6941V12.6951Z" fill="#9C9C9C"/>
</svg>
